<svg width="111" height="27" viewBox="0 0 111 27" fill="none" xmlns="http://www.w3.org/2000/svg">
<path d="M11.016 26.36C8.88 26.36 7.056 25.916 5.544 25.028C4.032 24.14 2.868 22.964 2.052 21.5C1.26 20.036 0.864 18.452 0.864 16.748C0.864 14.924 1.26 13.256 2.052 11.744C2.844 10.232 3.996 9.02 5.508 8.108C7.02 7.196 8.856 6.74 11.016 6.74C13.152 6.74 14.976 7.196 16.488 8.108C18 9.02 19.14 10.22 19.908 11.708C20.7 13.196 21.096 14.792 21.096 16.496C21.096 17.192 21.048 17.804 20.952 18.332H6.984C7.08 19.604 7.536 20.576 8.352 21.248C9.192 21.896 10.14 22.22 11.196 22.22C12.036 22.22 12.84 22.016 13.608 21.608C14.376 21.2 14.904 20.648 15.192 19.952L20.088 21.32C19.344 22.808 18.18 24.02 16.596 24.956C15.036 25.892 13.176 26.36 11.016 26.36ZM6.84 14.804H15.048C14.928 13.604 14.484 12.656 13.716 11.96C12.972 11.24 12.048 10.88 10.944 10.88C9.84 10.88 8.904 11.24 8.136 11.96C7.392 12.68 6.96 13.628 6.84 14.804ZM23.6706 18.692V13.508H34.7586V18.692H23.6706ZM54.4871 7.928C54.4151 7.832 54.1631 7.652 53.7311 7.388C53.2991 7.124 52.7591 6.848 52.1111 6.56C51.4631 6.248 50.7551 5.996 49.9871 5.804C49.2191 5.588 48.4511 5.48 47.6831 5.48C45.5711 5.48 44.5151 6.188 44.5151 7.604C44.5151 8.468 44.9711 9.08 45.8831 9.44C46.8191 9.8 48.1511 10.232 49.8791 10.736C51.5111 11.192 52.9151 11.72 54.0911 12.32C55.2911 12.896 56.2151 13.676 56.8631 14.66C57.5111 15.62 57.8351 16.892 57.8351 18.476C57.8351 19.916 57.5711 21.14 57.0431 22.148C56.5151 23.132 55.7951 23.936 54.8831 24.56C53.9711 25.16 52.9391 25.604 51.7871 25.892C50.6591 26.156 49.4831 26.288 48.2591 26.288C46.3631 26.288 44.4431 26.012 42.4991 25.46C40.5551 24.884 38.8391 24.104 37.3511 23.12L39.9431 17.972C40.0391 18.092 40.3511 18.32 40.8791 18.656C41.4071 18.968 42.0671 19.304 42.8591 19.664C43.6511 20.024 44.5151 20.336 45.4511 20.6C46.4111 20.84 47.3831 20.96 48.3671 20.96C50.4551 20.96 51.4991 20.324 51.4991 19.052C51.4991 18.404 51.2231 17.9 50.6711 17.54C50.1431 17.156 49.4111 16.832 48.4751 16.568C47.5391 16.28 46.4831 15.956 45.3071 15.596C42.9551 14.876 41.2151 14 40.0871 12.968C38.9831 11.936 38.4311 10.46 38.4311 8.54C38.4311 6.74 38.8511 5.228 39.6911 4.004C40.5551 2.756 41.7071 1.82 43.1471 1.196C44.5871 0.547999 46.1591 0.223999 47.8631 0.223999C49.6631 0.223999 51.3671 0.535999 52.9751 1.16C54.5831 1.76 55.9511 2.384 57.0791 3.032L54.4871 7.928ZM67.1459 0.439999H73.5179L82.3019 26H76.2539L74.2739 20.276H66.3179L64.3739 26H58.3259L67.1459 0.439999ZM73.3019 16.208L70.3139 6.38L67.2539 16.208H73.3019ZM104.979 26V10.772L99.4711 21.86H96.2311L90.7231 10.772V26H84.8191V0.439999H91.2271L97.8511 13.796L104.511 0.439999H110.883V26H104.979Z" fill="#4267B2"/>
</svg>
